<?xml version="1.0" encoding="UTF-8"?>
<svg id="Capa_1" xmlns="http://www.w3.org/2000/svg" version="1.1" viewBox="0 0 1920 1080">
  <!-- Generator: Adobe Illustrator 30.0.0, SVG Export Plug-In . SVG Version: 2.1.1 Build 123)  -->
  <defs>
    <style>
      .st0 {
        fill: #4700ff;
        opacity: .87;
      }

      .st1 {
        fill: #400d86;
        opacity: .4;
      }

      .st2 {
        opacity: .65;
      }

      .st2, .st3 {
        fill: #0074ff;
      }

      .st4 {
        opacity: .26;
      }

      .st4, .st5, .st6 {
        fill: #10e0ff;
      }

      .st7 {
        font-family: MyriadPro-Regular, 'Myriad Pro';
        font-size: 18.38px;
      }

      .st5 {
        opacity: .25;
      }

      .st8 {
        fill: #55b0ff;
        opacity: .44;
      }

      .st6 {
        opacity: .14;
      }

      .st9 {
        fill: #003edd;
        opacity: .74;
      }
    </style>
  </defs>
  <polygon class="st9" points="509.56 1 4 511.59 4 669.17 666.1 1 509.56 1"/>
  <polygon class="st3" points="4 870.61 864.13 1 666.1 1 4 669.17 4 870.61"/>
  <polygon class="st0" points="953.78 1 4 958.92 4 870.61 864.13 1 953.78 1"/>
  <polygon class="st3" points="953.78 1 4 958.92 4 1079.52 84.95 1079.52 1149.62 1 953.78 1"/>
  <polygon class="st1" points="978.58 1 648.64 349.77 998.05 1 978.58 1"/>
  <polygon class="st5" points="1203.48 1 569.22 644.58 769.4 644.58 1341.83 1 1203.48 1"/>
  <polygon class="st6" points="1394.01 1 1061.19 370.9 1101.01 487.26 1590.88 1 1394.01 1"/>
  <polygon class="st4" points="1285.87 594.53 1482.32 594.53 1004.21 1079.52 813.94 1079.52 1285.87 594.53"/>
  <polyline class="st5" points="618.87 1079.52 1124.87 556.05 1124.87 715.65 813.94 1079.52"/>
  <polygon class="st8" points="1920 207.36 1058.96 1079.52 1258.75 1079.52 1920 409.08 1920 207.36"/>
  <polygon class="st0" points="1920 497.16 1347.32 1079.52 1258.75 1079.52 1920 409.08 1920 497.16"/>
  <polygon class="st2" points="1920 702.01 1920 497.16 1347.32 1079.52 1548.49 1079.52 1920 702.01"/>
  <polygon class="st9" points="1918.55 854.33 1697.47 1079.52 1548.49 1079.52 1920 702.01 1918.55 854.33"/>
  <text class="st7" transform="translate(1308.31 1090.4) scale(.85 1)"><tspan x="0" y="0">10e0ff</tspan></text>
</svg>