<svg xmlns="http://www.w3.org/2000/svg" viewBox="0 0 71 71"><defs><style>.cls-1{fill:#fff200;}.cls-2{fill:#ef4d25;}.cls-3{fill:#fff;}.cls-4{fill:#104ba0;}</style></defs><g id="Layer_2" data-name="Layer 2"><g id="Layer_1-2" data-name="Layer 1"><path class="cls-1" d="M71,35.51A35.5,35.5,0,1,1,35.5,0,35.49,35.49,0,0,1,71,35.51Z"/><path class="cls-2" d="M64,35.51A28.53,28.53,0,1,1,35.5,7,28.52,28.52,0,0,1,64,35.51Z"/><path class="cls-1" d="M56.13,35.51A20.63,20.63,0,1,1,35.5,14.86,20.62,20.62,0,0,1,56.13,35.51Z"/><path class="cls-3" d="M65.13,26.77c-.91-1.24-2.56-1.86-4.9-1.86a18,18,0,0,0-2.32.16c-3.07.39-5.82.93-7.92,3l3.74-11.88-5.59.91c-2.1.34-4.22,1.19-5.5,5.12L40.9,27.87l-4.13.69a8.81,8.81,0,0,0-4.09,1.77,4,4,0,0,0,.1-1.77A4.27,4.27,0,0,0,31.35,26l.54-.1a7.55,7.55,0,0,0,5.79-4.82l1.67-5.27L10,20.56A3.21,3.21,0,0,0,7.13,23L4.84,30.32l11-1.82L6.18,60.08l5.91-.89a7.21,7.21,0,0,0,5.28-4.62l.34-1.12,8-1.4L27,48.12a4.17,4.17,0,0,0,.94,1.55A5.11,5.11,0,0,0,31.64,51h0a10.48,10.48,0,0,0,1.64-.14l10.07-1.62,1.14-3.64a3.81,3.81,0,0,0,.51.93c1,1.25,2.56,1.86,5,1.86a22.93,22.93,0,0,0,2.77-.2c6.53-.83,8.46-3.35,9.9-8l.57-1.81.11,0,2.22-7A5,5,0,0,0,65.13,26.77Z"/><path class="cls-4" d="M48.38,18.6c-1.75.28-3.28.88-4.32,4.09l-2,6.5L37,30c-1.38.19-3.81,1.16-4.7,3.16-1.35,2.42-3.85,10.15-4.08,13.07,0,3.13,2.55,3.53,4.85,3.13l9.17-1.47,9.38-29.84Zm-11,25.54a6.41,6.41,0,0,1-2.2.37c-.27-.2-.47-.2-.41-.85l2.63-8.13a1.58,1.58,0,0,1,1.5-1.11l1.61-.23Z"/><path class="cls-4" d="M58.09,26.55c-4,.5-6.52,1.21-8.27,4.2S47.47,36.38,46,41.46s1.5,5.89,6.52,5.26c5.93-.76,7.39-2.84,8.67-7l.15-.48-6,1v.06A2.09,2.09,0,0,1,53.25,42c-1.51.19-1.35-.59-1-1.62l.57-1.8,9.37-1.49,1.93-6.14C64.88,28.39,64.5,25.73,58.09,26.55Zm-.28,6-.48,1.55-3.32.5.52-1.64c.25-.81.69-1.36,2-1.53S58.06,31.7,57.81,32.52Z"/><path class="cls-4" d="M24.64,25.57l-8.7,28.57a5.7,5.7,0,0,1-4.1,3.59l-3.55.53,9.64-31.61L7,28.46l1.57-5A1.74,1.74,0,0,1,10.2,22l27-4.4-1,3a6.14,6.14,0,0,1-4.59,3.8Z"/><path class="cls-4" d="M31.34,28.92a3.08,3.08,0,0,0-3.64-2.33,3.08,3.08,0,0,0-2.76,3.33,3.06,3.06,0,0,0,3.63,2.32A3.07,3.07,0,0,0,31.34,28.92Z"/><polygon class="cls-4" points="30.18 33.02 24.59 50.74 18.24 51.85 23.82 34.15 30.18 33.02"/><path class="cls-4" d="M58.94,49.44a1.29,1.29,0,0,1,0-.35v0a.5.5,0,0,0-.13-.41.41.41,0,0,0,.2-.36.49.49,0,0,0-.53-.48h-.71v1.75h.43v-.7h.16c.12,0,.15,0,.16.09v.17a.93.93,0,0,0,.07.4l0,0H59Zm-.8-1.28h.24c.09,0,.14.05.14.15s-.05.17-.14.17h-.24Zm.16,2.16a1.64,1.64,0,0,1-1.15-.48,1.59,1.59,0,0,1-.48-1.16,1.62,1.62,0,0,1,.48-1.15,1.69,1.69,0,0,1,2.31,0,1.64,1.64,0,0,1-1.16,2.79Zm0-2.74a1.12,1.12,0,0,0-.78.32,1.1,1.1,0,0,0-.32.78,1.06,1.06,0,0,0,.32.78,1.1,1.1,0,0,0,1.89-.78,1.11,1.11,0,0,0-1.11-1.1Z"/></g></g></svg>